<?xml version="1.0" standalone="no"?>
<!DOCTYPE svg PUBLIC "-//W3C//DTD SVG 20010904//EN"
 "http://www.w3.org/TR/2001/REC-SVG-20010904/DTD/svg10.dtd">
<svg version="1.0" xmlns="http://www.w3.org/2000/svg"
 width="450.000000pt" height="450.000000pt" viewBox="0 0 450.000000 450.000000"
 preserveAspectRatio="xMidYMid meet">
<metadata>
Created by potrace 1.11, written by Peter Selinger 2001-2013
</metadata>
<g transform="translate(0.000000,450.000000) scale(0.100000,-0.100000)"
fill="#000000" stroke="none">
<path d="M0 3442 l0 -728 28 -15 c28 -17 62 -18 100 -5 17 6 30 1 53 -18 17
-15 36 -23 42 -19 7 4 19 7 28 8 21 0 129 96 129 114 0 11 4 11 18 -2 10 -10
22 -14 25 -10 4 3 7 1 7 -5 0 -7 11 -12 25 -12 14 0 24 -3 24 -7 -6 -36 31
-74 73 -76 18 -1 40 -9 48 -18 29 -30 63 -38 100 -22 19 7 38 19 41 25 4 6 20
13 36 14 15 1 39 6 52 10 16 5 22 4 18 -3 -9 -14 24 -42 59 -52 28 -8 53 0 81
26 9 8 23 9 44 3 31 -9 72 0 84 19 4 8 12 8 26 0 11 -6 28 -8 36 -5 12 5 14 2
8 -16 -16 -51 -12 -92 13 -118 13 -14 28 -35 33 -48 5 -13 23 -29 41 -36 27
-12 36 -12 64 2 49 23 61 62 43 132 -3 10 5 14 28 15 17 0 46 11 64 24 20 15
48 25 73 26 23 1 51 5 64 9 26 9 26 9 7 -38 -13 -31 -18 -34 -38 -27 -33 13
-69 3 -93 -24 -19 -23 -22 -37 -15 -101 0 -7 20 -21 43 -31 41 -20 42 -20 75
0 22 13 36 30 40 48 4 20 9 26 17 21 6 -5 26 -9 43 -9 18 0 43 -8 55 -19 37
-31 66 -45 73 -34 3 6 15 10 25 10 10 0 20 5 22 12 2 6 15 12 29 14 13 1 24 3
24 4 0 1 8 3 18 5 41 8 58 36 56 90 -2 46 1 56 30 88 36 39 60 40 56 2 -4 -29
29 -62 69 -69 41 -7 82 18 97 59 10 25 19 35 36 36 24 2 41 5 46 9 1 1 11 4
22 5 11 2 27 6 36 9 12 6 15 0 14 -26 -4 -71 60 -112 126 -81 24 11 44 38 41
54 0 3 11 6 26 7 15 1 50 3 78 6 l50 4 -4 -29 c-3 -23 2 -36 28 -60 27 -26 38
-30 66 -26 48 8 75 37 78 84 1 22 6 45 10 51 10 16 36 15 36 -1 0 -7 9 -20 20
-30 11 -9 20 -25 20 -35 0 -9 12 -26 26 -37 28 -20 84 -29 84 -13 0 5 4 7 10
3 13 -8 45 44 45 75 0 14 5 25 12 25 7 0 18 6 25 13 14 14 44 16 53 2 4 -6 15
-6 31 0 14 6 29 8 33 6 4 -3 18 12 31 32 32 48 45 56 100 59 34 2 41 0 32 -9
-6 -6 -20 -12 -30 -13 -35 -2 -79 -26 -89 -48 -15 -33 -5 -80 20 -99 12 -10
27 -22 32 -27 6 -5 30 -2 58 6 27 8 51 12 54 9 11 -11 62 51 66 79 3 28 7 30
57 35 39 4 57 12 71 29 21 26 25 72 8 103 -9 17 -9 20 4 15 8 -3 25 0 39 7 22
11 24 11 26 -8 1 -12 -8 -28 -20 -37 -29 -23 -29 -88 0 -120 12 -12 22 -19 22
-15 0 5 6 4 13 -3 14 -11 27 -10 87 8 27 9 36 8 42 -2 27 -49 46 -61 94 -62
33 0 48 -5 47 -13 -3 -13 41 -45 66 -47 9 0 21 -4 27 -7 14 -9 61 32 72 63 5
13 6 33 2 44 -4 11 -3 28 2 38 8 16 14 12 48 -30 38 -45 74 -71 95 -68 28 4
65 26 74 44 14 25 14 78 0 86 -7 5 -5 15 5 31 9 13 16 31 16 39 0 9 6 15 13
12 6 -2 11 -10 10 -16 -2 -6 2 -11 7 -11 7 0 10 233 10 680 l0 680 -40 0 c-22
0 -49 -5 -60 -12 -15 -9 -24 -9 -42 1 -18 9 -79 11 -248 7 -124 -3 -241 -4
-260 -4 -39 1 -941 1 -980 0 -14 -1 -137 1 -274 4 -180 4 -257 2 -277 -7 -22
-9 -32 -9 -43 0 -10 9 -76 10 -237 7 -123 -3 -237 -5 -254 -5 -16 1 -241 3
-499 5 -367 3 -471 2 -477 -8 -6 -10 -17 -10 -54 0 -57 15 -501 17 -510 2 -3
-5 -17 -10 -31 -10 -13 0 -24 5 -24 10 0 6 -38 10 -95 10 l-95 0 0 -728z
m3030 -573 c0 -9 7 -22 15 -29 9 -8 12 -17 7 -22 -10 -10 -42 0 -42 14 0 5 -3
7 -7 5 -9 -6 -14 51 -7 73 5 12 8 12 20 -4 8 -11 14 -27 14 -37z m-2807 -14
c-27 -24 -49 -42 -51 -40 -1 1 -4 12 -7 23 -3 16 4 23 30 32 18 6 39 17 45 25
7 8 16 12 21 9 5 -3 -12 -25 -38 -49z m4261 13 c1 -17 -3 -24 -11 -21 -7 3
-13 9 -13 13 0 5 -3 15 -6 23 -4 11 0 15 12 13 11 -2 18 -12 18 -28z m-3007
-24 c-3 -3 -12 -4 -19 -1 -8 3 -5 6 6 6 11 1 17 -2 13 -5z m463 -4 c0 -5 -2
-10 -4 -10 -3 0 -8 5 -11 10 -3 6 -1 10 4 10 6 0 11 -4 11 -10z m2060 -20 c0
-5 -2 -10 -4 -10 -3 0 -8 5 -11 10 -3 6 -1 10 4 10 6 0 11 -4 11 -10z m-1899
-73 c-10 -9 -11 -8 -5 6 3 10 9 15 12 12 3 -3 0 -11 -7 -18z m-280 -94 c-5
-31 -10 -37 -36 -40 -25 -3 -27 -1 -13 7 10 6 21 29 24 51 5 29 10 37 19 29 7
-6 10 -23 6 -47z m-538 33 c10 10 47 -7 47 -22 0 -18 -14 -18 -29 0 -7 8 -25
13 -41 12 -29 -2 -37 4 -24 17 4 3 14 2 24 -3 10 -5 20 -7 23 -4z"/>
<path d="M868 2593 c-26 -13 -49 -59 -43 -85 10 -44 20 -58 47 -67 48 -17 67
-13 99 18 25 26 28 35 23 68 -9 59 -72 92 -126 66z"/>
<path d="M1042 2519 c-17 -6 -29 -24 -33 -47 0 -4 -5 -12 -9 -17 -12 -14 18
-73 44 -87 12 -7 35 -11 51 -9 32 3 78 38 69 52 -3 5 -1 9 5 9 9 0 9 9 -1 50
-1 8 -13 25 -26 38 -23 22 -59 26 -100 11z"/>
<path d="M660 2418 c-67 -25 -86 -81 -45 -134 16 -21 33 -33 41 -30 8 3 14 1
14 -4 0 -6 9 -6 23 -1 12 5 26 9 32 9 11 0 45 61 45 82 0 9 -5 21 -12 28 -7 7
-8 12 -3 12 9 0 -35 35 -45 35 -3 0 -9 3 -15 6 -5 4 -21 2 -35 -3z"/>
<path d="M2635 2413 c-8 -7 -18 -13 -24 -13 -18 0 -24 -67 -10 -100 13 -28 22
-34 42 -31 4 0 7 -3 7 -8 0 -18 67 -4 89 18 11 11 18 21 15 21 -4 0 -2 6 2 13
12 16 10 36 -6 69 -20 42 -87 60 -115 31z"/>
<path d="M6 2183 c-3 -3 -6 -44 -6 -90 l0 -83 28 0 c50 0 93 60 78 108 -8 25
-41 63 -49 56 -3 -3 -14 -1 -25 5 -11 6 -22 7 -26 4z"/>
<path d="M1999 2110 c-32 -32 -35 -63 -11 -107 16 -28 68 -43 104 -29 51 19
67 90 31 135 -11 13 -34 23 -56 26 -33 4 -43 1 -68 -25z"/>
<path d="M3584 2054 c-39 -16 -54 -35 -58 -71 -7 -55 30 -93 93 -97 8 -1 14
-15 16 -39 1 -21 7 -43 13 -49 9 -9 8 -16 -5 -30 -17 -19 -43 -24 -43 -8 0 6
4 10 8 10 15 0 6 65 -13 93 -9 15 -20 25 -24 23 -3 -2 -15 0 -26 4 -28 10 -71
-7 -90 -36 -18 -28 -27 -84 -13 -84 5 0 7 -4 4 -8 -3 -5 6 -16 20 -26 25 -19
32 -50 14 -61 -5 -3 -10 2 -10 13 0 23 -20 43 -82 83 -44 29 -77 33 -105 16
-7 -5 -13 -4 -13 1 0 13 -40 23 -54 14 -6 -3 -17 -7 -25 -9 -8 -1 -17 -7 -21
-14 -6 -8 -11 -5 -19 9 -14 26 -73 39 -106 24 -13 -6 -29 -27 -36 -46 -15 -41
-24 -44 -48 -18 -27 31 -78 47 -97 31 -9 -7 -17 0 -31 28 -19 40 -20 43 -22
71 -2 26 -61 59 -93 52 -56 -11 -87 -65 -93 -163 -1 -21 -4 -39 -6 -40 -2 -1
-15 -8 -27 -15 -27 -15 -31 -13 -37 18 -2 12 -9 28 -15 35 -8 10 -1 24 30 59
34 40 39 52 35 83 -4 35 -40 77 -56 67 -5 -3 -9 -1 -9 5 0 5 -9 9 -20 8 -11
-1 -20 -5 -20 -10 0 -4 -4 -6 -8 -3 -5 3 -18 -3 -28 -13 -18 -16 -21 -16 -36
-1 -27 25 -79 24 -113 -4 -23 -19 -29 -31 -28 -61 1 -21 7 -41 15 -46 7 -5 11
-9 8 -10 -3 0 -18 -3 -35 -5 -46 -8 -108 -46 -123 -77 -11 -23 -16 -25 -33
-17 -10 6 -19 8 -19 5 0 -3 -10 4 -22 15 -12 11 -28 18 -34 16 -8 -3 -11 11
-11 44 2 55 -20 86 -64 91 -35 5 -87 -20 -95 -45 -11 -32 -4 -79 14 -99 16
-18 15 -18 -13 -11 -41 9 -45 12 -45 32 -1 24 -21 48 -50 57 -34 12 -60 13
-60 4 0 -4 -9 -10 -19 -14 -31 -10 -50 -79 -28 -101 11 -11 8 -24 -5 -24 -6 0
-8 3 -5 7 4 3 2 12 -4 20 -6 7 -8 13 -5 13 17 0 -32 39 -56 45 -16 4 -29 16
-32 30 -4 14 -22 31 -48 44 -24 11 -37 21 -30 21 20 0 13 53 -12 83 -26 32
-69 41 -107 22 -28 -15 -48 -51 -43 -77 2 -10 6 -26 7 -35 2 -10 20 -27 39
-38 34 -19 35 -22 22 -45 -7 -14 -13 -21 -14 -16 0 4 -11 1 -25 -8 -34 -22
-40 -20 -41 16 -2 40 -46 79 -86 74 -35 -4 -78 -32 -79 -51 -1 -8 -2 -20 -3
-27 -1 -15 -45 -18 -54 -4 -4 7 -26 20 -49 30 -36 16 -46 17 -80 5 -21 -7 -47
-13 -58 -14 -11 -1 -33 -7 -49 -14 -45 -18 -86 -21 -86 -5 0 8 -5 14 -10 14
-6 0 -9 3 -8 8 2 4 -9 21 -24 37 -16 16 -28 32 -28 36 0 7 -42 25 -55 24 -29
-4 -65 -18 -65 -26 0 -4 -14 -23 -32 -41 -17 -18 -32 -40 -33 -49 -1 -17 -35
-57 -35 -41 0 24 -54 62 -87 62 -19 0 -32 4 -29 8 3 5 -6 20 -19 35 -23 24
-23 26 -6 32 25 7 59 46 62 70 5 34 -9 69 -33 84 -24 16 -88 23 -88 11 0 -4
-14 -13 -31 -20 -58 -24 -80 -99 -42 -142 14 -16 14 -21 0 -50 -9 -18 -15 -42
-14 -52 1 -13 -13 -30 -40 -48 l-42 -29 -42 28 c-34 22 -39 29 -24 32 122 23
88 188 -35 172 -7 -1 -10 -277 -10 -806 l0 -805 2250 0 2250 0 0 760 c0 717
-1 760 -17 761 -10 1 -28 0 -40 -1 -14 -1 -23 4 -23 13 0 24 -36 47 -75 49
-31 1 -43 -4 -67 -31 -22 -25 -27 -37 -22 -59 4 -15 11 -30 16 -33 10 -6 -55
-49 -73 -49 -6 0 -1 12 10 26 12 15 21 39 21 54 0 31 -40 79 -67 81 -31 2 -58
-3 -61 -10 -1 -4 -16 -6 -32 -3 -37 5 -74 -4 -93 -23 -13 -13 -20 -12 -53 5
-22 10 -40 15 -42 10 -2 -5 -10 -6 -17 -4 -8 3 -25 -6 -39 -21 -13 -14 -27
-22 -30 -16 -4 5 -2 13 4 16 8 5 7 11 -1 21 -6 8 -8 14 -3 14 4 0 -2 9 -14 21
-13 11 -38 21 -57 22 -36 2 -44 14 -23 35 9 9 9 12 -1 12 -7 0 -10 4 -6 9 7
12 -35 59 -55 63 -8 2 -17 6 -20 9 -3 3 -19 0 -36 -7z m-1644 -325 c0 -6 -4
-7 -10 -4 -5 3 -10 11 -10 16 0 6 5 7 10 4 6 -3 10 -11 10 -16z m2452 -14 c2
-22 -1 -40 -9 -47 -10 -8 -13 -6 -14 8 0 11 -2 28 -4 38 -2 11 -2 23 1 28 11
18 22 6 26 -27z m-1102 -122 c0 -16 4 -16 -44 1 l-39 14 28 15 c27 13 31 13
42 -2 7 -9 13 -22 13 -28z m-2179 7 c0 -3 2 -13 4 -22 4 -22 -18 -23 -39 -3
-8 8 -20 15 -26 15 -6 0 -8 5 -5 10 6 10 64 10 66 0z m2980 -17 c37 -27 49
-43 31 -43 -4 0 -14 6 -21 13 -6 6 -35 12 -63 12 -58 0 -74 17 -31 33 40 15
41 15 84 -15z m-3562 -19 c-16 -8 -25 -9 -28 -2 -5 14 19 27 37 21 11 -5 9 -9
-9 -19z"/>
<path d="M2992 2031 c-22 -19 -46 -81 -31 -81 5 0 8 -3 7 -7 -5 -19 15 -51 35
-58 51 -16 67 -13 97 15 39 37 41 86 5 120 -30 28 -87 34 -113 11z"/>
</g>
</svg>
